<?xml version="1.0" encoding="utf-8"?>
<!-- Generator: Adobe Illustrator 19.2.0, SVG Export Plug-In . SVG Version: 6.00 Build 0)  -->
<svg version="1.1" id="Ebene_1" xmlns="http://www.w3.org/2000/svg" xmlns:xlink="http://www.w3.org/1999/xlink" x="0px" y="0px"
	 viewBox="0 0 16 16" style="enable-background:new 0 0 16 16;" xml:space="preserve">
<style type="text/css">
	.st0{fill:#FFFFFF;}
	.st1{fill:#999999;}
	.st2{fill:#F16529;}
</style>
<path class="st0" d="M1,1h14v14H1V1z"/>
<path class="st1" d="M1,1v14h14V1H1z M2,2h12v12H2V2z"/>
<g>
	<path class="st2" d="M6.4,12.4h-1c-0.7,0-1.3-0.4-1.3-1.4V9.2c0-0.6-0.8-0.7-1.1-0.7V7.4c0.2,0,1.1-0.1,1.1-0.7V5.1
		c0-1,0.5-1.4,1.3-1.4h1v1.1H5.9c-0.6,0-0.6,0.4-0.6,0.6V7c0,0.9-0.6,1-1,1v0c0.4,0,1,0.1,1,1v1.6c0,0.3,0,0.6,0.6,0.6h0.5V12.4z"/>
	<path class="st2" d="M9.6,3.6h1.1c0.7,0,1.2,0.4,1.2,1.4v1.7c0,0.6,0.8,0.7,1.1,0.7v1.1c-0.3,0-1.1,0.1-1.1,0.7v1.7
		c0,1-0.5,1.4-1.3,1.4h-1v-1.1h0.5c0.6,0,0.6-0.4,0.6-0.6V9c0-0.9,0.6-1,1-1v0c-0.4,0-1-0.1-1-1V5.4c0-0.3,0-0.6-0.6-0.6H9.6
		C9.6,4.8,9.6,3.6,9.6,3.6z"/>
</g>
</svg>
